<svg width="80" height="11" viewBox="0 0 80 11" fill="none" xmlns="http://www.w3.org/2000/svg">
<path fill-rule="evenodd" clip-rule="evenodd" d="M34.2061 0.838623C35.4889 0.838623 36.9392 1.38623 37.9838 2.67043L36.3657 4.06561C35.9079 3.51781 35.1278 2.9704 34.2061 2.9704C32.8331 2.9704 31.6921 3.99373 31.6921 5.74082C31.6921 7.24007 32.6847 8.43955 34.2061 8.43955C35.0505 8.43955 35.8626 7.98969 36.3655 7.35737L37.9836 8.75907C37.2038 9.74308 35.9532 10.5196 34.3658 10.5687L34.2055 10.5711L34.0833 10.57C31.5505 10.5174 29.3778 8.83321 29.3778 5.74082C29.3778 3.02905 31.1184 0.838623 34.2061 0.838623ZM17.4485 0.968899C19.5308 0.968899 20.5365 1.82279 20.5365 3.28946C20.5365 4.09142 20.1949 4.95835 19.1762 5.38214V5.4084C20.4461 5.75379 21.0198 6.63395 21.0198 7.80736C21.0198 9.33268 20.0336 10.454 18.0223 10.454H13.9095V0.968899H17.4485ZM43.6445 0.968939L47.0935 10.4538H44.1692L42.5882 7.74144L41.0112 10.4538H38.0941L41.53 0.968939H43.6445ZM6.34323 0.968939V2.96386H2.17247V5.09544H5.61484V7.07713H2.17247V10.4538H0V0.968939H6.34323ZM26.5431 0.968959L29.9921 10.4538H27.6841L27.1363 8.75907H23.842L23.3005 10.4538H20.9929L24.4286 0.968959H26.5431ZM51.3824 0.96884C53.6968 0.96884 54.7217 2.3575 54.7217 4.24144C54.7217 6.35347 53.3293 7.39655 51.2151 7.39655H49.9899V10.4539H47.8176V0.96884H51.3824ZM57.6764 0.968978V10.4538H55.446V0.968978H57.6764ZM65.5449 0.968781V2.9637H63.0694V10.4538H60.8713V2.9637H58.3958V0.968781H65.5449ZM69.3565 0.968959L72.8055 10.4538H70.4975L69.9498 8.75907H66.6556L66.1141 10.4538H63.8065L67.2422 0.968959H69.3565ZM75.7587 0.968959V8.46562H79.6909V10.4538H73.5412V0.968959H75.7587ZM13.1895 0.962718V2.95764H9.23136V4.77641H12.3578V6.73855H9.23136V8.45957H13.1902V10.4478H7.06533L7.06552 0.962718H13.1895ZM17.3454 6.50361H16.0753V8.50486H17.3454C18.1638 8.49814 18.7249 8.1723 18.7249 7.50739C18.7249 6.92069 18.2865 6.50361 17.3454 6.50361ZM25.4989 3.66789H25.4729L24.4481 6.86861H26.5304L25.4989 3.66789ZM68.3126 3.66789H68.2866L67.2616 6.86861H69.3438L68.3126 3.66789ZM50.9506 2.94401H49.9899V5.43441L50.9182 5.43421C51.8852 5.43421 52.4332 4.965 52.4332 4.18931C52.4332 3.47859 51.9432 2.94401 50.9506 2.94401ZM17.0424 2.93775H16.0755L16.0753 4.75001H17.1132C17.7774 4.75001 18.306 4.45004 18.306 3.84378C18.306 3.30921 17.9258 2.93104 17.0424 2.93775Z" fill="#979797"/>
</svg>
