<svg width="19" height="19" viewBox="0 0 19 19" fill="none" xmlns="http://www.w3.org/2000/svg">
<path d="M9.4141 12.6666C8.99763 14.8581 7.11385 16.5298 4.82351 16.621L4.62622 16.6249H3.08742C2.72418 16.6249 2.42444 16.3531 2.38047 16.0018L2.37492 15.9124V14.6458C2.37492 14.3452 2.59829 14.0967 2.8881 14.0574L2.96867 14.052H4.552C5.38897 14.052 6.10459 13.5325 6.39398 12.7983L6.44056 12.6666H9.4141ZM10.8853 1.58325C12.3063 1.58325 13.4583 2.73518 13.4583 4.15617V9.302C13.4583 10.723 12.3063 11.8749 10.8853 11.8749H4.15617C2.73518 11.8749 1.58325 10.723 1.58325 9.302V4.15617C1.58325 2.73518 2.73518 1.58325 4.15617 1.58325H10.8853ZM17.1154 2.05615C17.3016 2.16155 17.4166 2.35893 17.4166 2.57284V10.8853C17.4166 11.0992 17.3016 11.2966 17.1154 11.402C16.9292 11.5074 16.7008 11.5045 16.5173 11.3945L14.2499 10.034V3.42416L16.5173 2.0637C16.7008 1.95364 16.9292 1.95076 17.1154 2.05615Z" fill="#76C9B5"/>
</svg>
